<svg xmlns="http://www.w3.org/2000/svg" viewBox="0 0 64 64"><defs><style>.cls-1{fill:#cfd8dc;stroke:#cfd8dc;}.cls-1,.cls-2,.cls-3,.cls-4,.cls-5,.cls-6{stroke-linecap:round;stroke-width:2px;}.cls-1,.cls-2,.cls-3,.cls-4,.cls-5{stroke-linejoin:round;}.cls-2{fill:#757575;stroke:#757575;}.cls-3,.cls-5{fill:none;}.cls-3,.cls-4{stroke:#ff4931;}.cls-4{fill:#ff4931;}.cls-5{stroke:#4f4f4f;}.cls-6{fill:#5b3b63;stroke:#5b3b63;stroke-miterlimit:10;opacity:0.1;}.cls-7{fill:#4f4f4f;}</style></defs><title>coke</title><g id="coke"><rect class="cls-1" x="29" y="5" width="8" height="6"/><path class="cls-2" d="M37,11H29l-.12,1.31A11.21,11.21,0,0,1,28.22,16l-3,8.37a17.59,17.59,0,0,0-.81,8.78L26,43l-1.46,9.05a18.43,18.43,0,0,0-.11,5.9l.28,2.45A2.92,2.92,0,0,0,27.61,63H38.39a2.92,2.92,0,0,0,2.9-2.59L41.57,58a18.43,18.43,0,0,0-.11-5.91L40,43l1.61-9.93a17.59,17.59,0,0,0-.79-8.71l-3.06-8.61a11.21,11.21,0,0,1-.65-3.62Z"/><line class="cls-3" x1="28" y1="5" x2="38" y2="5"/><rect class="cls-4" x="29" y="1" width="8" height="4"/><path class="cls-4" d="M39.63,21A21.75,21.75,0,0,1,33,22a21.77,21.77,0,0,1-6.6-1l-1.2,3.32a17.59,17.59,0,0,0-1,6.8A20.14,20.14,0,0,0,33,33a20.14,20.14,0,0,0,8.81-1.86,17.59,17.59,0,0,0-1-6.78Z"/><path class="cls-5" d="M29,36.07a5.17,5.17,0,0,0,8,0"/><path class="cls-6" d="M40,43l1.61-9.93a17.59,17.59,0,0,0-.79-8.71l-3.06-8.61a11.21,11.21,0,0,1-.65-3.62L37,11V1H33V11l.11,1.14a11.21,11.21,0,0,0,.65,3.62l3.06,8.61a17.59,17.59,0,0,1,.79,8.71L36,43l1.47,9.09A18.43,18.43,0,0,1,37.57,58l-.28,2.41A2.92,2.92,0,0,1,34.39,63h4a2.92,2.92,0,0,0,2.9-2.59L41.57,58a18.43,18.43,0,0,0-.11-5.91Z"/><circle class="cls-7" cx="29.5" cy="27.5" r="1.5"/><circle class="cls-7" cx="36.5" cy="27.5" r="1.5"/></g></svg>